<svg xmlns="http://www.w3.org/2000/svg" width="512" height="512" viewBox="0 0 512 512"><path d="M505.59 409.92l-154.794-154.794 154.794-154.794c1.666-1.674 2.881-3.62 3.658-5.691 2.119-5.676.904-12.294-3.658-16.856l-73.124-73.122c-4.562-4.562-11.195-5.754-16.863-3.652-2.055.764-4.016 1.978-5.684 3.636l-154.793 154.794-154.794-154.795c-1.674-1.658-3.621-2.872-5.692-3.636-5.675-2.117-12.294-.91-16.856 3.653l-73.122 73.122c-4.563 4.562-5.754 11.196-3.652 16.856.779 2.071 1.979 4.017 3.652 5.691l154.794 154.794-154.794 154.794c-1.659 1.668-2.873 3.629-3.652 5.684-2.117 5.668-.911 12.302 3.652 16.864l73.122 73.122c4.562 4.563 11.197 5.746 16.856 3.658 2.071-.776 4.018-1.992 5.692-3.658l154.794-154.793 154.793 154.793c1.668 1.666 3.629 2.882 5.684 3.658 5.685 2.119 12.302.905 16.863-3.658l73.124-73.122c4.562-4.562 5.777-11.196 3.658-16.864-.777-2.055-1.992-4.016-3.658-5.684z"/></svg>