<svg xmlns="http://www.w3.org/2000/svg" width="512" height="512" viewBox="0 0 512 512"><path d="M426.805 0h-341.432c-46.954 0-85.373 38.418-85.373 85.373v341.432c0 46.986 38.418 85.373 85.373 85.373h341.432c46.954 0 85.373-38.387 85.373-85.373v-341.432c0-46.955-38.419-85.373-85.373-85.373zm-287.272 415.77c-24.008 0-43.5-19.381-43.5-43.356 0-23.854 19.491-43.424 43.5-43.424 24.069 0 43.546 19.569 43.546 43.424 0 23.975-19.476 43.356-43.546 43.356zm109.29.375c0-40.89-15.911-79.465-44.752-108.256-28.867-28.887-67.226-44.83-107.974-44.83v-62.599c118.854 0 215.638 96.769 215.638 215.685h-62.912zm111.114 0c0-145.58-118.383-264.061-263.777-264.061v-62.646c180.062 0 326.58 146.612 326.58 326.707h-62.803z"/></svg>