<svg xmlns="http://www.w3.org/2000/svg" width="512" height="512" viewBox="0 0 512 512"><path d="M.453 434.503c-.142-1.28-.235-2.53-.298-3.81.064 1.28.157 2.562.298 3.81zm117.448-152.144c45.982 1.377 76.805-46.309 68.871-106.518-7.931-60.208-51.667-108.5-97.616-109.873-45.983-1.375-76.82 44.702-68.888 104.908 7.93 60.225 51.649 110.11 97.633 111.483zm393.765-154.45v-42.625c0-46.906-38.378-85.284-85.283-85.284h-341.069c-46.107 0-83.94 37.098-85.22 82.908 29.166-25.668 69.623-47.121 111.342-47.121h178.515l-39.956 33.788h-56.603c37.552 14.396 57.538 58.022 57.538 102.788 0 37.597-20.89 69.934-50.401 92.916-28.807 22.453-34.241 31.822-34.241 50.935 0 16.236 30.854 43.968 46.966 55.334 47.172 33.259 62.425 64.11 62.425 115.669 0 8.213-1.03 16.396-3.028 24.451h153.733c46.905 0 85.254-38.349 85.254-85.282v-266.468h-95.934v95.929h-31.979v-95.929h-95.931v-31.978h95.931v-95.932h31.979v95.933h95.934l.028-.032zm-418.778 254.786c10.819 0 20.688-.28 30.962-.28-13.555-13.146-24.312-29.292-24.312-49.151 0-11.806 3.778-23.142 9.057-33.227-5.372.374-10.869.499-16.568.499-37.159 0-68.716-11.992-92.026-31.9v134.389c26.697-12.646 58.396-20.299 92.854-20.299l.033-.031zm-91.155 60.616c-.546-2.751-.999-5.496-1.278-8.308.279 2.809.7 5.557 1.278 8.308zm225.854 32.787c-7.524-29.417-34.226-43.969-71.417-69.763-13.522-4.371-28.416-6.933-44.407-7.119-44.764-.47-86.5 17.488-110.03 44.188 7.948 38.814 42.485 68.231 83.55 68.231h143.133c.889-5.557 1.343-11.304 1.343-17.205 0-6.279-.765-12.368-2.172-18.332z"/></svg>