<svg xmlns="http://www.w3.org/2000/svg" width="512" height="512" viewBox="0 0 512 512"><path d="M426.698 0h-341.377c-47.144 0-85.321 38.206-85.321 85.352v341.345c0 47.163 38.206 85.353 85.32 85.353h341.376c47.131 0 85.322-38.188 85.322-85.353v-341.345c.002-47.146-38.191-85.352-85.32-85.352zm-276.382 194.087c33.626 0 60.886 27.26 60.886 60.886 0 33.627-27.26 60.887-60.886 60.887-33.627 0-60.886-27.26-60.886-60.887 0-33.626 27.259-60.886 60.886-60.886zm82.536 245.543c-79.83-1.353-143.422-90.653-143.422-90.653 4.059-10.823 42.395-15.784 89.3-12.177 40.471 3.114 55.023 46.906 55.023 46.906s9.022 56.016-.901 55.924zm-39.238-309.845c0-33.626 27.259-60.886 60.886-60.886s60.887 27.26 60.887 60.886c0 33.627-27.26 60.886-60.887 60.886-33.627.001-60.886-27.259-60.886-60.886zm82.535 311.651c-9.923.091-.903-55.925-.903-55.925s14.552-43.793 55.024-46.906c46.904-3.606 85.241 1.353 89.299 12.177.002-.001-63.59 89.3-143.42 90.654zm82.535-126.929c-33.628 0-60.887-27.259-60.887-60.886s27.259-60.886 60.887-60.886c33.627 0 60.887 27.26 60.887 60.886 0 33.627-27.261 60.886-60.887 60.886z"/></svg>