<svg xmlns="http://www.w3.org/2000/svg" width="512" height="512" viewBox="0 0 512 512"><path d="M426.698 0h-341.377c-47.144 0-85.321 38.206-85.321 85.352v341.345c0 47.163 38.206 85.353 85.32 85.353h341.376c47.131 0 85.322-38.188 85.322-85.353v-341.345c.002-47.146-38.191-85.352-85.32-85.352zm-140.044 402.039c-25.956 0-50.348-13.438-58.691-29.377 0 0-12.831 48.879-15.941 60.85-5.796 22.252-21.375 50.099-31.815 67.1l-17.5-6.188c-2.235-20.253-4.25-51.35.89-73.443 4.64-19.973 30.021-127.297 30.021-127.297s-7.643-15.312-7.643-38.001c0-35.597 20.645-62.193 46.302-62.193 21.862 0 32.394 16.391 32.394 36.064 0 21.955-13.987 54.816-21.222 85.228-6.017 25.471 12.77 46.285 37.928 46.285 45.504 0 80.509-47.974 80.509-117.259 0-61.289-44.069-104.183-106.981-104.183-72.834 0-115.587 54.629-115.587 111.118 0 22.035 8.484 45.599 19.047 58.445 2.079 2.531 2.392 4.78 1.75 7.345-1.953 8.062-6.266 25.438-7.093 29.003-1.126 4.688-3.721 5.688-8.58 3.438-31.972-14.878-51.975-61.633-51.975-99.182 0-80.774 58.694-154.937 169.157-154.937 88.82 0 157.827 63.303 157.827 147.858 0 88.228-55.601 159.267-132.824 159.267l.027.059z"/></svg>